<mxfile host="65bd71144e">
    <diagram id="i0gXbHmOt3csl2GL1nNR" name="第 1 页">
        <mxGraphModel dx="1138" dy="554" grid="0" gridSize="10" guides="1" tooltips="1" connect="1" arrows="1" fold="1" page="1" pageScale="1" pageWidth="2339" pageHeight="3300" math="0" shadow="0">
            <root>
                <mxCell id="0"/>
                <mxCell id="1" parent="0"/>
                <mxCell id="5" style="edgeStyle=none;html=1;exitX=0.5;exitY=1;exitDx=0;exitDy=0;fontSize=12;fontColor=#000000;" parent="1" source="2" target="3" edge="1">
                    <mxGeometry relative="1" as="geometry"/>
                </mxCell>
                <mxCell id="2" value="" style="ellipse;whiteSpace=wrap;html=1;aspect=fixed;" parent="1" vertex="1">
                    <mxGeometry x="240" y="120" width="40" height="40" as="geometry"/>
                </mxCell>
                <mxCell id="10" style="edgeStyle=none;html=1;exitX=0.5;exitY=1;exitDx=0;exitDy=0;entryX=0.5;entryY=0;entryDx=0;entryDy=0;fontSize=12;fontColor=#000000;" parent="1" source="3" target="7" edge="1">
                    <mxGeometry relative="1" as="geometry"/>
                </mxCell>
                <mxCell id="3" value="&lt;b&gt;初始化小孩总数&lt;/b&gt;&lt;span style=&quot;font-family: Consolas, &amp;quot;Courier New&amp;quot;, monospace; background-color: rgb(255, 255, 255);&quot;&gt;&lt;font style=&quot;font-size: 12px;&quot;&gt;&lt;b&gt;numOfBoy&lt;br&gt;数小孩间隔m&lt;br&gt;将小孩围成圈（数组/链表）&lt;/b&gt;&lt;br&gt;&lt;/font&gt;&lt;/span&gt;" style="rounded=1;whiteSpace=wrap;html=1;" parent="1" vertex="1">
                    <mxGeometry x="180" y="200" width="160" height="60" as="geometry"/>
                </mxCell>
                <mxCell id="11" style="edgeStyle=none;html=1;exitX=0.5;exitY=1;exitDx=0;exitDy=0;entryX=0.5;entryY=0;entryDx=0;entryDy=0;fontSize=12;fontColor=#000000;" parent="1" source="7" target="8" edge="1">
                    <mxGeometry relative="1" as="geometry"/>
                </mxCell>
                <mxCell id="7" value="&lt;b&gt;小孩依次离开&lt;/b&gt;" style="rounded=1;whiteSpace=wrap;html=1;fontSize=12;fontColor=#000000;" parent="1" vertex="1">
                    <mxGeometry x="200" y="320" width="120" height="60" as="geometry"/>
                </mxCell>
                <mxCell id="12" style="edgeStyle=none;html=1;exitX=0.5;exitY=1;exitDx=0;exitDy=0;fontSize=12;fontColor=#000000;" parent="1" source="8" target="13" edge="1">
                    <mxGeometry relative="1" as="geometry">
                        <mxPoint x="260" y="560" as="targetPoint"/>
                    </mxGeometry>
                </mxCell>
                <mxCell id="8" value="&lt;b&gt;宣布获胜者&lt;/b&gt;" style="rounded=1;whiteSpace=wrap;html=1;fontSize=12;fontColor=#000000;" parent="1" vertex="1">
                    <mxGeometry x="200" y="440" width="120" height="60" as="geometry"/>
                </mxCell>
                <mxCell id="13" value="" style="ellipse;whiteSpace=wrap;html=1;aspect=fixed;fontSize=12;fontColor=#000000;shadow=0;fillColor=#FFFFFF;strokeWidth=6;" parent="1" vertex="1">
                    <mxGeometry x="240" y="560" width="40" height="40" as="geometry"/>
                </mxCell>
                <mxCell id="22" value="" style="shape=flexArrow;endArrow=classic;html=1;fontSize=12;fontColor=#000000;" parent="1" edge="1">
                    <mxGeometry width="50" height="50" relative="1" as="geometry">
                        <mxPoint x="435" y="350" as="sourcePoint"/>
                        <mxPoint x="320" y="349.5" as="targetPoint"/>
                    </mxGeometry>
                </mxCell>
                <mxCell id="23" value="" style="ellipse;whiteSpace=wrap;html=1;aspect=fixed;shadow=0;strokeWidth=1;fontSize=12;fontColor=#000000;fillColor=none;" parent="1" vertex="1">
                    <mxGeometry x="520" y="120" width="40" height="40" as="geometry"/>
                </mxCell>
                <mxCell id="30" style="edgeStyle=none;html=1;exitX=0.5;exitY=1;exitDx=0;exitDy=0;entryX=0.5;entryY=0;entryDx=0;entryDy=0;fontSize=12;fontColor=#000000;" parent="1" target="26" edge="1">
                    <mxGeometry relative="1" as="geometry">
                        <mxPoint x="540" y="160" as="sourcePoint"/>
                    </mxGeometry>
                </mxCell>
                <mxCell id="32" style="edgeStyle=none;html=1;exitX=0.5;exitY=1;exitDx=0;exitDy=0;entryX=0.5;entryY=0;entryDx=0;entryDy=0;fontSize=12;fontColor=#000000;" parent="1" source="25" target="27" edge="1">
                    <mxGeometry relative="1" as="geometry"/>
                </mxCell>
                <mxCell id="25" value="&lt;b&gt;树到第m个小孩离开&lt;/b&gt;" style="rounded=1;whiteSpace=wrap;html=1;shadow=0;strokeWidth=1;fontSize=12;fontColor=#000000;fillColor=none;" parent="1" vertex="1">
                    <mxGeometry x="472.5" y="290" width="135" height="30" as="geometry"/>
                </mxCell>
                <mxCell id="31" style="edgeStyle=none;html=1;exitX=0.5;exitY=1;exitDx=0;exitDy=0;entryX=0.5;entryY=0;entryDx=0;entryDy=0;fontSize=12;fontColor=#000000;" parent="1" source="26" target="25" edge="1">
                    <mxGeometry relative="1" as="geometry">
                        <Array as="points">
                            <mxPoint x="540" y="260"/>
                        </Array>
                    </mxGeometry>
                </mxCell>
                <mxCell id="36" style="edgeStyle=none;html=1;exitX=1;exitY=0.5;exitDx=0;exitDy=0;fontSize=12;fontColor=#000000;" parent="1" source="26" edge="1">
                    <mxGeometry relative="1" as="geometry">
                        <mxPoint x="540" y="440" as="targetPoint"/>
                        <Array as="points">
                            <mxPoint x="640" y="225"/>
                            <mxPoint x="640" y="420"/>
                            <mxPoint x="540" y="420"/>
                        </Array>
                    </mxGeometry>
                </mxCell>
                <mxCell id="26" value="&lt;b&gt;圈中小孩数&amp;gt;1&lt;/b&gt;" style="rhombus;whiteSpace=wrap;html=1;shadow=0;strokeWidth=1;fontSize=12;fontColor=#000000;fillColor=none;" parent="1" vertex="1">
                    <mxGeometry x="470" y="200" width="140" height="50" as="geometry"/>
                </mxCell>
                <mxCell id="38" style="edgeStyle=none;html=1;exitX=0.5;exitY=1;exitDx=0;exitDy=0;fontSize=12;fontColor=#000000;entryX=0;entryY=0.5;entryDx=0;entryDy=0;" parent="1" source="27" target="26" edge="1">
                    <mxGeometry relative="1" as="geometry">
                        <mxPoint x="460" y="179" as="targetPoint"/>
                        <Array as="points">
                            <mxPoint x="540" y="413"/>
                            <mxPoint x="443" y="413"/>
                            <mxPoint x="443" y="225"/>
                        </Array>
                    </mxGeometry>
                </mxCell>
                <mxCell id="27" value="&lt;b&gt;圈中小孩数&lt;/b&gt;&lt;b style=&quot;border-color: var(--border-color); font-family: Consolas, &amp;quot;Courier New&amp;quot;, monospace; background-color: rgb(255, 255, 255);&quot;&gt;numOfBoy&lt;/b&gt;&lt;b&gt;-1&lt;/b&gt;" style="rounded=1;whiteSpace=wrap;html=1;shadow=0;strokeWidth=1;fontSize=12;fontColor=#000000;fillColor=none;" parent="1" vertex="1">
                    <mxGeometry x="475.5" y="360" width="129" height="40" as="geometry"/>
                </mxCell>
                <mxCell id="35" value="真" style="text;html=1;align=center;verticalAlign=middle;resizable=0;points=[];autosize=1;strokeColor=none;fillColor=none;fontSize=12;fontColor=#000000;shadow=0;strokeWidth=1;" parent="1" vertex="1">
                    <mxGeometry x="530" y="240" width="40" height="30" as="geometry"/>
                </mxCell>
                <mxCell id="37" value="" style="ellipse;whiteSpace=wrap;html=1;aspect=fixed;fontSize=12;fontColor=#000000;shadow=0;fillColor=#FFFFFF;strokeWidth=6;" parent="1" vertex="1">
                    <mxGeometry x="520" y="440" width="40" height="40" as="geometry"/>
                </mxCell>
                <mxCell id="40" value="假" style="text;html=1;align=center;verticalAlign=middle;resizable=0;points=[];autosize=1;strokeColor=none;fillColor=none;fontSize=12;fontColor=#000000;shadow=0;strokeWidth=1;" parent="1" vertex="1">
                    <mxGeometry x="600" y="200" width="40" height="30" as="geometry"/>
                </mxCell>
                <mxCell id="41" value="" style="shape=flexArrow;endArrow=classic;html=1;fontSize=12;fontColor=#000000;" parent="1" edge="1">
                    <mxGeometry width="50" height="50" relative="1" as="geometry">
                        <mxPoint x="740" y="305" as="sourcePoint"/>
                        <mxPoint x="610" y="304.5" as="targetPoint"/>
                    </mxGeometry>
                </mxCell>
                <mxCell id="51" style="edgeStyle=none;html=1;exitX=0.5;exitY=1;exitDx=0;exitDy=0;entryX=0.5;entryY=0;entryDx=0;entryDy=0;fontSize=12;fontColor=#000000;" parent="1" source="44" target="45" edge="1">
                    <mxGeometry relative="1" as="geometry"/>
                </mxCell>
                <mxCell id="44" value="" style="ellipse;whiteSpace=wrap;html=1;aspect=fixed;shadow=0;strokeWidth=1;fontSize=12;fontColor=#000000;fillColor=none;" parent="1" vertex="1">
                    <mxGeometry x="840" y="120" width="40" height="40" as="geometry"/>
                </mxCell>
                <mxCell id="52" style="edgeStyle=none;html=1;exitX=0.5;exitY=1;exitDx=0;exitDy=0;entryX=0.5;entryY=0;entryDx=0;entryDy=0;fontSize=12;fontColor=#000000;" parent="1" source="45" target="46" edge="1">
                    <mxGeometry relative="1" as="geometry"/>
                </mxCell>
                <mxCell id="45" value="&lt;b&gt;需要数的小孩数j=&lt;/b&gt;&lt;b style=&quot;border-color: var(--border-color); font-family: Consolas, &amp;quot;Courier New&amp;quot;, monospace; background-color: rgb(255, 255, 255);&quot;&gt;m&lt;/b&gt;&lt;b&gt;&lt;br&gt;将当前位置移到最后一个小孩&lt;/b&gt;" style="rounded=1;whiteSpace=wrap;html=1;shadow=0;strokeWidth=1;fontSize=12;fontColor=#000000;fillColor=none;" parent="1" vertex="1">
                    <mxGeometry x="775" y="200" width="170" height="40" as="geometry"/>
                </mxCell>
                <mxCell id="53" style="edgeStyle=none;html=1;exitX=0.5;exitY=1;exitDx=0;exitDy=0;entryX=0.5;entryY=0;entryDx=0;entryDy=0;fontSize=12;fontColor=#000000;" parent="1" source="46" target="47" edge="1">
                    <mxGeometry relative="1" as="geometry"/>
                </mxCell>
                <mxCell id="46" value="&lt;b&gt;将当前位置移到下一个小孩&lt;/b&gt;" style="rounded=1;whiteSpace=wrap;html=1;shadow=0;strokeWidth=1;fontSize=12;fontColor=#000000;fillColor=none;" parent="1" vertex="1">
                    <mxGeometry x="775" y="280" width="170" height="40" as="geometry"/>
                </mxCell>
                <mxCell id="54" style="edgeStyle=none;html=1;exitX=0.5;exitY=1;exitDx=0;exitDy=0;entryX=0.5;entryY=0;entryDx=0;entryDy=0;fontSize=12;fontColor=#000000;" parent="1" source="47" target="48" edge="1">
                    <mxGeometry relative="1" as="geometry"/>
                </mxCell>
                <mxCell id="47" value="&lt;b&gt;j--&lt;/b&gt;" style="rounded=1;whiteSpace=wrap;html=1;shadow=0;strokeWidth=1;fontSize=12;fontColor=#000000;fillColor=none;" parent="1" vertex="1">
                    <mxGeometry x="827.5" y="360" width="65" height="30" as="geometry"/>
                </mxCell>
                <mxCell id="55" style="edgeStyle=none;html=1;exitX=0.5;exitY=1;exitDx=0;exitDy=0;entryX=0.5;entryY=0;entryDx=0;entryDy=0;fontSize=12;fontColor=#000000;" parent="1" source="48" target="49" edge="1">
                    <mxGeometry relative="1" as="geometry"/>
                </mxCell>
                <mxCell id="59" style="edgeStyle=none;html=1;exitX=0;exitY=0.5;exitDx=0;exitDy=0;fontSize=12;fontColor=#000000;" parent="1" source="48" edge="1">
                    <mxGeometry relative="1" as="geometry">
                        <mxPoint x="860" y="260" as="targetPoint"/>
                        <Array as="points">
                            <mxPoint x="760" y="455"/>
                            <mxPoint x="760" y="260"/>
                        </Array>
                    </mxGeometry>
                </mxCell>
                <mxCell id="48" value="&lt;b&gt;j&amp;gt;0&lt;/b&gt;" style="rhombus;whiteSpace=wrap;html=1;shadow=0;strokeWidth=1;fontSize=12;fontColor=#000000;fillColor=none;" parent="1" vertex="1">
                    <mxGeometry x="790" y="430" width="140" height="50" as="geometry"/>
                </mxCell>
                <mxCell id="56" style="edgeStyle=none;html=1;exitX=0.5;exitY=1;exitDx=0;exitDy=0;entryX=0.5;entryY=0;entryDx=0;entryDy=0;fontSize=12;fontColor=#000000;" parent="1" source="49" target="50" edge="1">
                    <mxGeometry relative="1" as="geometry"/>
                </mxCell>
                <mxCell id="49" value="&lt;b&gt;第m个小孩离开&lt;/b&gt;" style="rounded=1;whiteSpace=wrap;html=1;shadow=0;strokeWidth=1;fontSize=12;fontColor=#000000;fillColor=none;" parent="1" vertex="1">
                    <mxGeometry x="802.5" y="520" width="115" height="40" as="geometry"/>
                </mxCell>
                <mxCell id="50" value="" style="ellipse;whiteSpace=wrap;html=1;aspect=fixed;fontSize=12;fontColor=#000000;shadow=0;fillColor=#FFFFFF;strokeWidth=6;" parent="1" vertex="1">
                    <mxGeometry x="840" y="600" width="40" height="40" as="geometry"/>
                </mxCell>
                <mxCell id="57" value="真" style="text;html=1;align=center;verticalAlign=middle;resizable=0;points=[];autosize=1;strokeColor=none;fillColor=none;fontSize=12;fontColor=#000000;shadow=0;strokeWidth=1;" parent="1" vertex="1">
                    <mxGeometry x="762.5" y="430" width="40" height="30" as="geometry"/>
                </mxCell>
                <mxCell id="58" value="假" style="text;html=1;align=center;verticalAlign=middle;resizable=0;points=[];autosize=1;strokeColor=none;fillColor=none;fontSize=12;fontColor=#000000;shadow=0;strokeWidth=1;" parent="1" vertex="1">
                    <mxGeometry x="852.5" y="470" width="40" height="30" as="geometry"/>
                </mxCell>
                <mxCell id="60" value="&lt;b&gt;嵌入&lt;/b&gt;" style="text;html=1;align=center;verticalAlign=middle;resizable=0;points=[];autosize=1;strokeColor=none;fillColor=none;fontSize=12;fontColor=#000000;shadow=0;strokeWidth=1;" parent="1" vertex="1">
                    <mxGeometry x="372" y="320" width="42" height="26" as="geometry"/>
                </mxCell>
                <mxCell id="61" value="&lt;b style=&quot;border-color: var(--border-color); color: rgb(0, 0, 0); font-family: Helvetica; font-size: 12px; font-style: normal; font-variant-ligatures: normal; font-variant-caps: normal; letter-spacing: normal; orphans: 2; text-align: center; text-indent: 0px; text-transform: none; widows: 2; word-spacing: 0px; -webkit-text-stroke-width: 0px; background-color: rgb(251, 251, 251); text-decoration-thickness: initial; text-decoration-style: initial; text-decoration-color: initial;&quot;&gt;嵌入&lt;/b&gt;" style="text;whiteSpace=wrap;html=1;" parent="1" vertex="1">
                    <mxGeometry x="673.9959478400737" y="274.0007130342371" width="52" height="36" as="geometry"/>
                </mxCell>
            </root>
        </mxGraphModel>
    </diagram>
</mxfile>